<?xml version="1.0" encoding="utf-8"?>
<!-- Generator: Adobe Illustrator 25.2.1, SVG Export Plug-In . SVG Version: 6.00 Build 0)  -->
<svg version="1.1" id="Layer_1" xmlns="http://www.w3.org/2000/svg" xmlns:xlink="http://www.w3.org/1999/xlink" x="0px" y="0px"
	 viewBox="0 0 512 512" style="enable-background:new 0 0 512 512;" xml:space="preserve">
<style type="text/css">
	.st0{fill:#B0B0B0;}
	.st1{fill:#FEFEFE;}
</style>
<path class="st0" d="M256.1,35.7c120.9,0,219.8,98.4,219.2,220.6c-0.6,120-98.4,218.9-221,218.2c-119.8-0.7-218.8-98.5-217.9-221.3
	C37.4,133.6,134.7,35.6,256.1,35.7z M357.5,374.6c0-12.6,0-24.8,0-36.9c0-3,0.1-6.1-0.4-9c-2.8-15.9-11.6-28-24.4-37.4
	c-19-13.9-40.9-18.5-63.7-19.9c-13.3-0.8-26.6-0.6-39.9,1.3c-20.5,3-39.8,9-55.5,23.2c-11.9,10.7-19.4,23.8-19.3,40.4
	c0.1,11.4,0,22.8,0,34.1c0,1.4-0.5,2.9,0.7,4.1C222.3,374.6,289.6,374.6,357.5,374.6z M195,196.1c-0.8,35.3,27.1,61.9,60.4,62.1
	c35.5,0.2,61.5-26.7,62-60.5c0.5-35.3-26.9-61.7-60.5-62.2C222.8,135,195.1,162.4,195,196.1z"/>
<path class="st1" d="M357.5,374.6c-67.9,0-135.2,0-202.5,0c-1.2-1.3-0.7-2.8-0.7-4.1c0-11.4,0.1-22.8,0-34.1
	c-0.2-16.6,7.4-29.7,19.3-40.4c15.7-14.2,35-20.1,55.5-23.2c13.3-2,26.6-2.1,39.9-1.3c22.8,1.4,44.8,6,63.7,19.9
	c12.8,9.4,21.6,21.5,24.4,37.4c0.5,2.9,0.4,6,0.4,9C357.5,349.8,357.5,362,357.5,374.6z"/>
<path class="st1" d="M195,196.1c0.1-33.7,27.8-61.1,61.8-60.6c33.6,0.5,61.1,27,60.5,62.2c-0.5,33.8-26.4,60.7-62,60.5
	C222.1,258,194.3,231.4,195,196.1z"/>
</svg>
